<svg width="1600" height="900" viewBox="0 0 1600 900" fill="none" xmlns="http://www.w3.org/2000/svg">
  <defs>
    <linearGradient id="bg" x1="0" y1="0" x2="1" y2="1">
      <stop offset="0" stop-color="#0c0a09"/>
      <stop offset="0.45" stop-color="#1c1917"/>
      <stop offset="1" stop-color="#0c0a09"/>
    </linearGradient>
    <radialGradient id="spot" cx="0" cy="0" r="1" gradientUnits="userSpaceOnUse" gradientTransform="translate(920 180) rotate(110) scale(520 820)">
      <stop offset="0" stop-color="#fb7185" stop-opacity="0.35"/>
      <stop offset="0.5" stop-color="#7f1d1d" stop-opacity="0.20"/>
      <stop offset="1" stop-color="#000000" stop-opacity="0"/>
    </radialGradient>
    <linearGradient id="curtain" x1="0" y1="0" x2="0" y2="1">
      <stop offset="0" stop-color="#991b1b"/>
      <stop offset="1" stop-color="#7f1d1d"/>
    </linearGradient>
    <filter id="soft" x="-40" y="-40" width="1680" height="980" filterUnits="userSpaceOnUse" color-interpolation-filters="sRGB">
      <feGaussianBlur stdDeviation="18"/>
    </filter>
  </defs>

  <rect width="1600" height="900" fill="url(#bg)"/>

  <path d="M0 0H260C300 80 320 160 320 240V900H0V0Z" fill="url(#curtain)" opacity="0.9"/>
  <path d="M1600 0H1340C1300 80 1280 160 1280 240V900H1600V0Z" fill="url(#curtain)" opacity="0.9"/>

  <g filter="url(#soft)" opacity="0.85">
    <path d="M430 70C650 10 850 10 1100 70C1010 120 950 180 920 260C880 370 850 510 790 650C740 770 660 840 520 880C520 880 520 880 520 880C440 740 420 620 430 520C450 360 500 220 430 70Z" fill="url(#spot)"/>
  </g>

  <path d="M360 670C560 640 740 630 930 650C1100 670 1210 720 1320 780V900H360V670Z" fill="#0b0a09" opacity="0.55"/>
  <path d="M360 760C560 730 740 720 930 740C1100 760 1210 800 1320 850V900H360V760Z" fill="#000000" opacity="0.28"/>

  <g opacity="0.18">
    <circle cx="450" cy="210" r="2" fill="#ffffff"/>
    <circle cx="520" cy="140" r="1.5" fill="#ffffff"/>
    <circle cx="610" cy="240" r="1.5" fill="#ffffff"/>
    <circle cx="1140" cy="190" r="1.5" fill="#ffffff"/>
    <circle cx="1040" cy="120" r="1.2" fill="#ffffff"/>
    <circle cx="980" cy="260" r="1.2" fill="#ffffff"/>
  </g>
</svg>
