<svg width="640" height="480" viewBox="0 0 640 480" fill="none" xmlns="http://www.w3.org/2000/svg">
  <defs>
    <radialGradient id="beam" cx="0" cy="0" r="1" gradientUnits="userSpaceOnUse" gradientTransform="translate(318 182) rotate(90) scale(210 240)">
      <stop offset="0" stop-color="#fb7185" stop-opacity="0.35"/>
      <stop offset="0.55" stop-color="#7f1d1d" stop-opacity="0.22"/>
      <stop offset="1" stop-color="#7f1d1d" stop-opacity="0"/>
    </radialGradient>
    <linearGradient id="metal" x1="0" y1="0" x2="1" y2="1">
      <stop offset="0" stop-color="#1c1917"/>
      <stop offset="1" stop-color="#0c0a09"/>
    </linearGradient>
  </defs>

  <rect x="48" y="52" width="544" height="376" rx="28" fill="#ffffff"/>
  <rect x="48" y="52" width="544" height="376" rx="28" fill="#0c0a09" fill-opacity="0.03"/>

  <path d="M320 148C404 188 452 246 492 340C424 312 362 302 320 302C278 302 216 312 148 340C188 246 236 188 320 148Z" fill="url(#beam)"/>

  <path d="M240 124C248 112 262 104 276 104H364C378 104 392 112 400 124L420 154C428 166 424 182 410 188L356 212C332 222 308 222 284 212L230 188C216 182 212 166 220 154L240 124Z" fill="url(#metal)"/>
  <path d="M270 132H370" stroke="#ffffff" stroke-opacity="0.22" stroke-width="10" stroke-linecap="round"/>
  <path d="M248 224L208 260" stroke="#0c0a09" stroke-opacity="0.25" stroke-width="12" stroke-linecap="round"/>
  <path d="M392 224L432 260" stroke="#0c0a09" stroke-opacity="0.25" stroke-width="12" stroke-linecap="round"/>

  <circle cx="320" cy="322" r="10" fill="#7f1d1d" opacity="0.35"/>
  <path d="M196 360C254 332 292 324 320 324C348 324 386 332 444 360" stroke="#0c0a09" stroke-opacity="0.18" stroke-width="14" stroke-linecap="round"/>
</svg>
